<svg width="34" height="34" viewBox="0 0 34 34" fill="none" xmlns="http://www.w3.org/2000/svg">
<path d="M16.2094 32.4188C7.27445 32.4188 0 25.1443 0 16.2094C0 7.27445 7.27445 0 16.2094 0C25.1443 0 32.4188 7.27445 32.4188 16.2094C32.4188 25.1443 25.1443 32.4188 16.2094 32.4188ZM16.2094 2.3721C8.5712 2.3721 2.3721 8.58702 2.3721 16.2094C2.3721 23.8317 8.5712 30.0466 16.2094 30.0466C23.8476 30.0466 30.0466 23.8317 30.0466 16.2094C30.0466 8.58702 23.8476 2.3721 16.2094 2.3721Z" fill="#520166"/>
<path d="M32.8151 34.0005C32.5146 34.0005 32.2141 33.8898 31.9769 33.6526L28.8138 30.4895C28.3551 30.0308 28.3551 29.2717 28.8138 28.813C29.2724 28.3544 30.0316 28.3544 30.4902 28.813L33.6533 31.9761C34.112 32.4348 34.112 33.1939 33.6533 33.6526C33.4161 33.8898 33.1156 34.0005 32.8151 34.0005Z" fill="#520166"/>
</svg>
